<svg xmlns="http://www.w3.org/2000/svg" width="800" height="600" viewBox="0 0 800 600">
  <defs>
    <linearGradient id="bg" x1="0%" y1="0%" x2="100%" y2="100%">
      <stop offset="0%" stop-color="#0A1628"/>
      <stop offset="100%" stop-color="#112040"/>
    </linearGradient>
    <linearGradient id="blue" x1="0%" y1="0%" x2="100%" y2="100%">
      <stop offset="0%" stop-color="#1E6FFF"/>
      <stop offset="100%" stop-color="#00D4FF"/>
    </linearGradient>
    <linearGradient id="card1" x1="0%" y1="0%" x2="100%" y2="100%">
      <stop offset="0%" stop-color="#1a2f5a"/>
      <stop offset="100%" stop-color="#0f1e3d"/>
    </linearGradient>
    <filter id="glow">
      <feGaussianBlur stdDeviation="8" result="blur"/>
      <feMerge><feMergeNode in="blur"/><feMergeNode in="SourceGraphic"/></feMerge>
    </filter>
  </defs>
  <!-- Background -->
  <rect width="800" height="600" fill="url(#bg)"/>
  <!-- Grid pattern -->
  <g opacity="0.07" stroke="#1E6FFF" stroke-width="1">
    <line x1="0" y1="60" x2="800" y2="60"/><line x1="0" y1="120" x2="800" y2="120"/>
    <line x1="0" y1="180" x2="800" y2="180"/><line x1="0" y1="240" x2="800" y2="240"/>
    <line x1="0" y1="300" x2="800" y2="300"/><line x1="0" y1="360" x2="800" y2="360"/>
    <line x1="0" y1="420" x2="800" y2="420"/><line x1="0" y1="480" x2="800" y2="480"/>
    <line x1="0" y1="540" x2="800" y2="540"/>
    <line x1="60" y1="0" x2="60" y2="600"/><line x1="120" y1="0" x2="120" y2="600"/>
    <line x1="180" y1="0" x2="180" y2="600"/><line x1="240" y1="0" x2="240" y2="600"/>
    <line x1="300" y1="0" x2="300" y2="600"/><line x1="360" y1="0" x2="360" y2="600"/>
    <line x1="420" y1="0" x2="420" y2="600"/><line x1="480" y1="0" x2="480" y2="600"/>
    <line x1="540" y1="0" x2="540" y2="600"/><line x1="600" y1="0" x2="600" y2="600"/>
    <line x1="660" y1="0" x2="660" y2="600"/><line x1="720" y1="0" x2="720" y2="600"/>
    <line x1="780" y1="0" x2="780" y2="600"/>
  </g>
  <!-- Glow orb -->
  <ellipse cx="620" cy="200" rx="220" ry="200" fill="#1E6FFF" opacity="0.12"/>
  <ellipse cx="150" cy="450" rx="160" ry="140" fill="#00D4FF" opacity="0.07"/>
  <!-- Central CRM Dashboard mockup -->
  <!-- Main panel -->
  <rect x="80" y="60" width="640" height="480" rx="20" fill="#0d1e40" stroke="#1E6FFF" stroke-width="1" opacity="0.9"/>
  <!-- Top bar -->
  <rect x="80" y="60" width="640" height="52" rx="20" fill="#112040"/>
  <rect x="80" y="92" width="640" height="20" fill="#112040"/>
  <!-- Traffic lights -->
  <circle cx="112" cy="86" r="7" fill="#FF5F57"/><circle cx="132" cy="86" r="7" fill="#FFBC2E"/><circle cx="152" cy="86" r="7" fill="#27C840"/>
  <!-- URL bar -->
  <rect x="172" y="78" width="380" height="16" rx="8" fill="#1a2f5a"/>
  <!-- Nav icons -->
  <rect x="616" y="78" width="16" height="16" rx="4" fill="#1E6FFF" opacity="0.6"/>
  <rect x="638" y="78" width="16" height="16" rx="4" fill="#1a2f5a"/>
  <rect x="660" y="78" width="16" height="16" rx="4" fill="#1a2f5a"/>
  <!-- Left sidebar -->
  <rect x="80" y="112" width="140" height="428" rx="0" fill="#0c1a35"/>
  <rect x="80" y="460" width="140" height="80" rx="0" ry="0" fill="#0c1a35"/>
  <rect x="80" y="520" width="140" height="20" rx="0" fill="#0c1a35"/>
  <!-- Sidebar items -->
  <rect x="100" y="135" width="100" height="32" rx="8" fill="#1E6FFF"/>
  <rect x="108" y="146" width="16" height="10" rx="2" fill="white" opacity="0.8"/>
  <rect x="130" y="148" width="55" height="6" rx="3" fill="white" opacity="0.7"/>
  <rect x="100" y="178" width="100" height="30" rx="8" fill="transparent"/>
  <rect x="108" y="188" width="16" height="10" rx="2" fill="#5A6A8A"/>
  <rect x="130" y="191" width="45" height="5" rx="2.5" fill="#5A6A8A"/>
  <rect x="100" y="218" width="100" height="30" rx="8" fill="transparent"/>
  <rect x="108" y="228" width="16" height="10" rx="2" fill="#5A6A8A"/>
  <rect x="130" y="231" width="52" height="5" rx="2.5" fill="#5A6A8A"/>
  <rect x="100" y="258" width="100" height="30" rx="8" fill="transparent"/>
  <rect x="108" y="268" width="16" height="10" rx="2" fill="#5A6A8A"/>
  <rect x="130" y="271" width="40" height="5" rx="2.5" fill="#5A6A8A"/>
  <rect x="100" y="298" width="100" height="30" rx="8" fill="transparent"/>
  <rect x="108" y="308" width="16" height="10" rx="2" fill="#5A6A8A"/>
  <rect x="130" y="311" width="48" height="5" rx="2.5" fill="#5A6A8A"/>
  <!-- Sidebar avatar area -->
  <circle cx="150" cy="500" r="20" fill="#1E6FFF" opacity="0.3"/>
  <circle cx="150" cy="494" r="10" fill="#1E6FFF" opacity="0.6"/>
  <ellipse cx="150" cy="518" rx="16" ry="9" fill="#1E6FFF" opacity="0.4"/>
  <rect x="100" y="495" width="36" height="6" rx="3" fill="#5A6A8A"/>
  <rect x="100" y="507" width="26" height="4" rx="2" fill="#3a4a6a"/>
  <!-- Main content area header -->
  <rect x="240" y="128" width="200" height="12" rx="6" fill="white" opacity="0.8"/>
  <rect x="240" y="148" width="120" height="8" rx="4" fill="#5A6A8A"/>
  <!-- Metric cards row -->
  <rect x="240" y="175" width="118" height="75" rx="12" fill="url(#card1)" stroke="#1E6FFF" stroke-width="0.5"/>
  <rect x="370" y="175" width="118" height="75" rx="12" fill="url(#card1)" stroke="#1E6FFF" stroke-width="0.5"/>
  <rect x="500" y="175" width="118" height="75" rx="12" fill="url(#card1)" stroke="#1E6FFF" stroke-width="0.5"/>
  <rect x="630" y="175" width="90" height="75" rx="12" fill="url(#card1)" stroke="#1E6FFF" stroke-width="0.5"/>
  <!-- Metric card content -->
  <rect x="254" y="190" width="40" height="6" rx="3" fill="#5A6A8A"/>
  <rect x="254" y="204" width="65" height="16" rx="4" fill="url(#blue)"/>
  <rect x="254" y="228" width="30" height="6" rx="3" fill="#27C840" opacity="0.8"/>
  <rect x="384" y="190" width="50" height="6" rx="3" fill="#5A6A8A"/>
  <rect x="384" y="204" width="55" height="16" rx="4" fill="#00D4FF" opacity="0.8"/>
  <rect x="384" y="228" width="35" height="6" rx="3" fill="#27C840" opacity="0.8"/>
  <rect x="514" y="190" width="44" height="6" rx="3" fill="#5A6A8A"/>
  <rect x="514" y="204" width="70" height="16" rx="4" fill="url(#blue)"/>
  <rect x="514" y="228" width="25" height="6" rx="3" fill="#5A6A8A"/>
  <rect x="644" y="190" width="36" height="6" rx="3" fill="#5A6A8A"/>
  <rect x="644" y="204" width="50" height="16" rx="4" fill="#00D4FF" opacity="0.7"/>
  <!-- Chart area -->
  <rect x="240" y="265" width="320" height="175" rx="12" fill="url(#card1)" stroke="#1E6FFF" stroke-width="0.5"/>
  <rect x="258" y="282" width="80" height="8" rx="4" fill="white" opacity="0.7"/>
  <rect x="258" y="296" width="50" height="5" rx="2.5" fill="#5A6A8A"/>
  <!-- Bar chart -->
  <rect x="262" y="380" width="18" height="40" rx="4" fill="#1E6FFF" opacity="0.5"/>
  <rect x="288" y="355" width="18" height="65" rx="4" fill="#1E6FFF" opacity="0.7"/>
  <rect x="314" y="340" width="18" height="80" rx="4" fill="#1E6FFF"/>
  <rect x="340" y="360" width="18" height="60" rx="4" fill="#1E6FFF" opacity="0.6"/>
  <rect x="366" y="330" width="18" height="90" rx="4" fill="url(#blue)"/>
  <rect x="392" y="345" width="18" height="75" rx="4" fill="#1E6FFF" opacity="0.8"/>
  <rect x="418" y="315" width="18" height="105" rx="4" fill="url(#blue)"/>
  <rect x="444" y="335" width="18" height="85" rx="4" fill="#1E6FFF" opacity="0.7"/>
  <rect x="470" y="308" width="18" height="112" rx="4" fill="url(#blue)"/>
  <rect x="496" y="325" width="18" height="95" rx="4" fill="#1E6FFF" opacity="0.9"/>
  <!-- Trend line -->
  <polyline points="270,376 296,351 322,336 348,356 374,326 400,341 426,311 452,331 478,304 506,321" fill="none" stroke="#00D4FF" stroke-width="2" opacity="0.9"/>
  <!-- Dots on line -->
  <circle cx="270" cy="376" r="3" fill="#00D4FF"/><circle cx="374" cy="326" r="3" fill="#00D4FF"/>
  <circle cx="478" cy="304" r="3" fill="#00D4FF"/><circle cx="506" cy="321" r="3" fill="#00D4FF"/>
  <!-- Right panel -->
  <rect x="576" y="265" width="144" height="175" rx="12" fill="url(#card1)" stroke="#1E6FFF" stroke-width="0.5"/>
  <rect x="592" y="282" width="70" height="8" rx="4" fill="white" opacity="0.7"/>
  <!-- Donut chart -->
  <circle cx="648" cy="360" r="42" fill="none" stroke="#1a2f5a" stroke-width="18"/>
  <circle cx="648" cy="360" r="42" fill="none" stroke="#1E6FFF" stroke-width="18" stroke-dasharray="160 104" stroke-dashoffset="0" transform="rotate(-90 648 360)"/>
  <circle cx="648" cy="360" r="42" fill="none" stroke="#00D4FF" stroke-width="18" stroke-dasharray="66 198" stroke-dashoffset="-160" transform="rotate(-90 648 360)"/>
  <circle cx="648" cy="360" r="42" fill="none" stroke="#4D8FFF" stroke-width="18" stroke-dasharray="38 226" stroke-dashoffset="-226" transform="rotate(-90 648 360)"/>
  <rect x="628" y="352" width="40" height="16" rx="4" fill="#1a2f5a"/>
  <rect x="635" y="356" width="25" height="8" rx="2" fill="url(#blue)"/>
  <!-- Bottom table -->
  <rect x="240" y="455" width="480" height="90" rx="12" fill="url(#card1)" stroke="#1E6FFF" stroke-width="0.5"/>
  <rect x="256" y="468" width="60" height="6" rx="3" fill="white" opacity="0.8"/>
  <line x1="256" y1="486" x2="704" y2="486" stroke="#1a2f5a" stroke-width="1"/>
  <!-- Table rows -->
  <rect x="256" y="494" width="100" height="5" rx="2.5" fill="#5A6A8A"/>
  <rect x="400" y="494" width="60" height="5" rx="2.5" fill="#27C840" opacity="0.8"/>
  <rect x="560" y="494" width="40" height="5" rx="2.5" fill="#1E6FFF" opacity="0.8"/>
  <rect x="256" y="509" width="120" height="5" rx="2.5" fill="#5A6A8A"/>
  <rect x="400" y="509" width="50" height="5" rx="2.5" fill="#FFBC2E" opacity="0.8"/>
  <rect x="560" y="509" width="55" height="5" rx="2.5" fill="#1E6FFF" opacity="0.7"/>
  <rect x="256" y="524" width="90" height="5" rx="2.5" fill="#5A6A8A"/>
  <rect x="400" y="524" width="70" height="5" rx="2.5" fill="#27C840" opacity="0.8"/>
  <rect x="560" y="524" width="35" height="5" rx="2.5" fill="#1E6FFF" opacity="0.9"/>
  <!-- Floating notification badge -->
  <rect x="560" y="40" width="200" height="55" rx="14" fill="white" filter="url(#glow)"/>
  <circle cx="582" cy="68" r="14" fill="#1E6FFF"/>
  <rect x="572" y="63" width="20" height="3" rx="1.5" fill="white"/>
  <rect x="572" y="69" width="20" height="3" rx="1.5" fill="white"/>
  <rect x="572" y="75" width="14" height="3" rx="1.5" fill="white"/>
  <rect x="602" y="58" width="90" height="7" rx="3.5" fill="#1A2540"/>
  <rect x="602" y="71" width="65" height="5" rx="2.5" fill="#5A6A8A"/>
  <circle cx="738" cy="56" r="8" fill="#27C840"/><rect x="735" y="53" width="6" height="6" rx="1" fill="white"/>
</svg>